<?xml version="1.0" encoding="UTF-8"?>
<svg id="Livello_2" data-name="Livello 2" xmlns="http://www.w3.org/2000/svg" viewBox="0 0 502.48 365.65">
  <defs>
    <style>
      .cls-1 {
        fill: #65c4d7;
      }

      .cls-1, .cls-2, .cls-3, .cls-4, .cls-5, .cls-6, .cls-7, .cls-8, .cls-9, .cls-10, .cls-11, .cls-12, .cls-13 {
        stroke: #1d1d1b;
        stroke-miterlimit: 10;
      }

      .cls-2 {
        fill: #007185;
      }

      .cls-3 {
        fill: #003f36;
      }

      .cls-4 {
        fill: #64b97f;
      }

      .cls-5 {
        fill: #e2e2e1;
      }

      .cls-6 {
        fill: #fff;
      }

      .cls-7 {
        fill: #e41a2a;
      }

      .cls-8 {
        fill: #e1e060;
      }

      .cls-9 {
        fill: #de0c47;
      }

      .cls-10 {
        fill: #aa1641;
      }

      .cls-11 {
        fill: #a6c83a;
      }

      .cls-12 {
        fill: #d20f42;
      }

      .cls-13 {
        fill: #ce1423;
      }

      .cls-14, .cls-15 {
        stroke-width: 0px;
      }

      .cls-15 {
        fill: #1d1d1b;
      }
    </style>
  </defs>
  <g id="Livello_1-2" data-name="Livello 1">
    <g>
      <rect class="cls-12" x=".5" y=".5" width="273.44" height="356.39" rx="13.64" ry="13.64"/>
      <g>
        <circle class="cls-6" cx="48.9" cy="32.88" r="25.66"/>
        <circle class="cls-1" cx="48.9" cy="32.88" r="20.02"/>
      </g>
      <circle class="cls-7" cx="84.37" cy="14.03" r="6.81"/>
      <circle class="cls-8" cx="105.85" cy="14.03" r="6.81"/>
      <circle class="cls-11" cx="126.28" cy="14.03" r="6.81"/>
      <path class="cls-5" d="M215.98,87.5H36.57c-4.8,0-8.7,3.89-8.7,8.7v130.95l23.92,26.4h164.2c4.8,0,8.7-3.89,8.7-8.7V96.2c0-4.8-3.89-8.7-8.7-8.7Z"/>
      <rect class="cls-6" x="44.87" y="110.07" width="162.81" height="108.94" rx="7.48" ry="7.48"/>
      <rect class="cls-6" x="44.87" y="266.09" width="108.94" height="74.55" rx="7.48" ry="7.48"/>
      <g>
        <circle class="cls-9" cx="115.19" cy="99.2" r="3.93"/>
        <circle class="cls-9" cx="135.57" cy="99.2" r="3.93"/>
      </g>
      <circle class="cls-9" cx="29.99" cy="333.32" r="6.75"/>
      <circle class="cls-3" cx="29.99" cy="314.15" r="6.75"/>
      <rect class="cls-13" x="167" y="333.32" width="24.44" height="7.57" rx="3.78" ry="3.78"/>
      <rect class="cls-2" x="198.73" y="333.32" width="24.44" height="7.57" rx="3.78" ry="3.78"/>
      <path class="cls-3" d="M218.61,285.95h-13.46c-1.77,0-3.2-1.43-3.2-3.2v-13.46c0-1.77-1.43-3.2-3.2-3.2h-8.68c-1.77,0-3.2,1.43-3.2,3.2v13.46c0,1.77-1.43,3.2-3.2,3.2h-13.46c-1.77,0-3.2,1.43-3.2,3.2v8.68c0,1.77,1.43,3.2,3.2,3.2h13.46c1.77,0,3.2,1.43,3.2,3.2v13.46c0,1.77,1.43,3.2,3.2,3.2h8.68c1.77,0,3.2-1.43,3.2-3.2v-13.46c0-1.77,1.43-3.2,3.2-3.2h13.46c1.77,0,3.2-1.43,3.2-3.2v-8.68c0-1.77-1.43-3.2-3.2-3.2Z"/>
      <path class="cls-12" d="M443.13,84.67c-47.62.45-65.14-19.77-84.9-36.84-19.77-17.07-44.02-16.17-44.02-16.17h-40.88v325.23h214.1c8.04,0,14.55-6.51,14.55-14.55V88.33c0-2.12-1.71-3.84-3.83-3.84-14.26-.04-33.28-.03-55.01.18Z"/>
      <path class="cls-12" d="M283.33,346.89V48.33c0-3.68,2.99-6.67,6.67-6.67h24.58s.26,0,.26,0c2.14,0,21.38.39,36.85,13.75,1.9,1.64,3.77,3.31,5.66,4.98,18.08,16.07,38.57,34.29,84.23,34.29.54,0,1.09,0,1.65,0,13.89-.13,28.03-.2,42.02-.2.02,0,.05,0,.07,0,3.68,0,6.67,2.99,6.67,6.67v234.53c0,6.2-5.02,11.22-11.22,11.22h-197.43Z"/>
      <path class="cls-10" d="M.5,69.81h7.49c14.59-.06,35.1-.06,58.85.17,47.62.45,65.14-19.77,84.9-36.84,19.77-17.07,44.02-16.17,44.02-16.17h40.88s16.51,0,16.51,0h3.96l-16.51,7.87h-40.88s-24.26-.9-44.02,16.17c-19.77,17.07-37.28,37.28-84.9,36.84-23.75-.22-44.25-.22-58.85-.17H.5v-7.87Z"/>
      <rect class="cls-6" x="301.36" y="118.19" width="162.84" height="167.97" rx="6.84" ry="6.84"/>
      <g>
        <path class="cls-12" d="M257.11,16.96c-9.29,0-16.82,3.09-16.82,6.9v20.09c0-3.81,7.53-6.9,16.82-6.9s16.82,3.09,16.82,6.9v-20.09c0-3.81-7.53-6.9-16.82-6.9Z"/>
        <path class="cls-12" d="M257.11,37.05c-9.29,0-16.82,3.09-16.82,6.9v9.44c0-1.83,1.74-3.48,4.57-4.72,3.07-1.34,7.42-2.18,12.26-2.18s9.19.84,12.26,2.18c2.82,1.23,4.57,2.89,4.57,4.72v-9.44c0-3.81-7.53-6.9-16.82-6.9Z"/>
        <path class="cls-12" d="M269.37,48.67c-3.07-1.34-7.42-2.18-12.26-2.18s-9.19.84-12.26,2.18c-2.82,1.23-4.57,2.89-4.57,4.72v276.81c0-3.81,7.53-6.9,16.82-6.9s16.82,3.09,16.82,6.9V53.39c0-1.83-1.74-3.48-4.57-4.72Z"/>
        <ellipse class="cls-12" cx="257.11" cy="358.25" rx="16.82" ry="6.9"/>
        <path class="cls-12" d="M257.11,323.3c-9.29,0-16.82,3.09-16.82,6.9v6.9c0-1.26.83-2.44,2.27-3.45,2.91-2.06,8.33-3.45,14.56-3.45s11.65,1.39,14.56,3.45c1.43,1.02,2.27,2.19,2.27,3.45v-6.9c0-3.81-7.53-6.9-16.82-6.9Z"/>
        <path class="cls-12" d="M271.67,333.65c-2.91-2.06-8.33-3.45-14.56-3.45s-11.65,1.39-14.56,3.45c-1.43,1.02-2.27,2.19-2.27,3.45v21.14c0-3.81,7.53-6.9,16.82-6.9s16.82,3.09,16.82,6.9v-21.14c0-1.26-.83-2.44-2.27-3.45Z"/>
      </g>
      <path class="cls-10" d="M485.31,94.47h-.07c-13.99,0-28.12.07-42.02.2-.55,0-1.1,0-1.65,0-45.66,0-66.15-18.22-84.23-34.29-1.88-1.68-3.76-3.34-5.66-4.98-15.47-13.36-34.71-13.75-36.85-13.75h-.26s-.19,0-.19,0h-24.39c-3.68,0-6.67,2.99-6.67,6.67v1.18h25.64s.26,0,.26,0c2.14,0,21.38.39,36.85,13.75,1.9,1.64,3.77,3.31,5.66,4.98,18.08,16.07,38.57,34.29,84.23,34.29.54,0,1.09,0,1.65,0,13.89-.13,42.06-.2,42.09-.2h1.03c2.29,0,4.14,1.85,4.14,4.14v239.64c4.16-1.64,7.1-5.69,7.1-10.43V101.14c0-3.68-2.98-6.67-6.67-6.67Z"/>
      <rect class="cls-4" x="301.36" y="298.97" width="111.41" height="40.36" rx="6.09" ry="6.09"/>
      <g>
        <path class="cls-14" d="M168.16,228.96h37.14c.64,0,1.15-.67,1.15-1.5s-.52-1.5-1.15-1.5h-37.14c-.64,0-1.15.67-1.15,1.5s.52,1.5,1.15,1.5Z"/>
        <path class="cls-14" d="M205.29,232.47h-37.14c-.64,0-1.15.67-1.15,1.5s.52,1.5,1.15,1.5h37.14c.64,0,1.15-.67,1.15-1.5s-.52-1.5-1.15-1.5Z"/>
        <path class="cls-14" d="M205.29,238.98h-37.14c-.64,0-1.15.67-1.15,1.5s.52,1.5,1.15,1.5h37.14c.64,0,1.15-.67,1.15-1.5s-.52-1.5-1.15-1.5Z"/>
        <path class="cls-14" d="M205.29,245.49h-37.14c-.64,0-1.15.67-1.15,1.5s.52,1.5,1.15,1.5h37.14c.64,0,1.15-.67,1.15-1.5s-.52-1.5-1.15-1.5Z"/>
      </g>
      <g>
        <path class="cls-15" d="M438.22,334.43c-.79,0-1.43-.52-1.43-1.17v-28.21c0-.65.64-1.17,1.43-1.17s1.43.52,1.43,1.17v28.21c0,.65-.64,1.17-1.43,1.17Z"/>
        <path class="cls-15" d="M443.13,335.5c-.79,0-1.43-.52-1.43-1.17v-30.35c0-.65.64-1.17,1.43-1.17s1.43.52,1.43,1.17v30.35c0,.65-.64,1.17-1.43,1.17Z"/>
        <path class="cls-15" d="M433.32,331.92c-.79,0-1.43-.52-1.43-1.17v-23.2c0-.65.64-1.17,1.43-1.17s1.43.52,1.43,1.17v23.2c0,.65-.64,1.17-1.43,1.17Z"/>
        <path class="cls-15" d="M438.22,334.43c-.79,0-1.43-.52-1.43-1.17v-28.21c0-.65.64-1.17,1.43-1.17s1.43.52,1.43,1.17v28.21c0,.65-.64,1.17-1.43,1.17Z"/>
        <path class="cls-15" d="M443.13,335.5c-.79,0-1.43-.52-1.43-1.17v-30.35c0-.65.64-1.17,1.43-1.17s1.43.52,1.43,1.17v30.35c0,.65-.64,1.17-1.43,1.17Z"/>
        <path class="cls-15" d="M448.04,335.48c-.79,0-1.43-.52-1.43-1.17v-30.32c0-.65.64-1.17,1.43-1.17s1.43.52,1.43,1.17v30.32c0,.65-.64,1.17-1.43,1.17Z"/>
        <path class="cls-15" d="M428.41,326.53c-.79,0-1.43-.52-1.43-1.17v-12.43c0-.65.64-1.17,1.43-1.17s1.43.52,1.43,1.17v12.43c0,.65-.64,1.17-1.43,1.17Z"/>
        <path class="cls-15" d="M428.41,326.53c-.79,0-1.43-.52-1.43-1.17v-12.43c0-.65.64-1.17,1.43-1.17s1.43.52,1.43,1.17v12.43c0,.65-.64,1.17-1.43,1.17Z"/>
        <path class="cls-15" d="M433.32,331.92c-.79,0-1.43-.52-1.43-1.17v-23.2c0-.65.64-1.17,1.43-1.17s1.43.52,1.43,1.17v23.2c0,.65-.64,1.17-1.43,1.17Z"/>
        <path class="cls-15" d="M448.04,335.48c-.79,0-1.43-.52-1.43-1.17v-30.32c0-.65.64-1.17,1.43-1.17s1.43.52,1.43,1.17v30.32c0,.65-.64,1.17-1.43,1.17Z"/>
        <path class="cls-15" d="M452.95,334.38c-.79,0-1.43-.52-1.43-1.17v-28.12c0-.65.64-1.17,1.43-1.17s1.43.52,1.43,1.17v28.12c0,.65-.64,1.17-1.43,1.17Z"/>
        <path class="cls-15" d="M462.77,326.34c-.79,0-1.43-.52-1.43-1.17v-12.03c0-.65.64-1.17,1.43-1.17s1.43.52,1.43,1.17v12.03c0,.65-.64,1.17-1.43,1.17Z"/>
        <path class="cls-15" d="M457.86,331.84c-.79,0-1.43-.52-1.43-1.17v-23.03c0-.65.64-1.17,1.43-1.17s1.43.52,1.43,1.17v23.03c0,.65-.64,1.17-1.43,1.17Z"/>
        <path class="cls-15" d="M452.95,334.38c-.79,0-1.43-.52-1.43-1.17v-28.12c0-.65.64-1.17,1.43-1.17s1.43.52,1.43,1.17v28.12c0,.65-.64,1.17-1.43,1.17Z"/>
      </g>
    </g>
  </g>
</svg>